<svg width="297" height="221" viewBox="0 0 297 221" fill="none" xmlns="http://www.w3.org/2000/svg">
<path d="M39.1421 181.582C20.9584 163.398 6.06055 148.341 6.06055 148.181C6.06055 147.99 20.9903 132.933 39.2378 114.685L72.415 81.5078L105.592 114.685C123.84 132.933 138.769 147.99 138.769 148.181C138.769 148.5 72.734 214.695 72.415 214.695C72.3193 214.695 57.3576 199.797 39.1421 181.582ZM60.6116 166.142C60.0054 165.121 59.9735 164.451 59.9735 143.396C59.9735 122.341 60.0054 121.671 60.6116 120.682L61.2496 119.63H55.0289H48.8081L49.4462 120.682C50.0523 121.671 50.0842 122.341 50.0842 143.396C50.0842 164.451 50.0523 165.121 49.4462 166.142L48.8081 167.162H55.0289H61.2496L60.6116 166.142ZM92.9594 165.504C92.0342 164.578 86.93 158.422 81.6663 151.85C74.1696 142.503 72.096 139.727 72.096 138.994C72.096 138.26 73.5315 136.569 79.9756 129.647C84.2822 124.989 88.3337 120.842 88.9717 120.395L90.1202 119.63H86.6748H83.2614V121.32V123.011L74.1696 133.953C66.1624 143.588 65.1096 144.991 65.4924 145.438C65.7477 145.725 68.8102 149.553 72.3193 153.924C75.8284 158.326 79.1462 162.314 79.7204 162.792C82.751 165.344 87.8233 166.939 93.3741 167.131L94.682 167.162L92.9594 165.504Z" fill="#692046"/>
<path d="M191.088 181.359L157.751 148.022L191.024 114.781L224.265 81.5078L257.602 114.845L290.938 148.181L257.665 181.454L224.424 214.695L191.088 181.359ZM233.867 167.322C238.844 166.269 242.162 164.578 245.415 161.42L247.553 159.315V156.539C247.553 155.008 247.425 153.764 247.298 153.764C247.138 153.764 246.851 154.37 246.628 155.136C245.447 159.123 242.098 163.334 238.844 164.929C235.973 166.301 233.548 166.843 229.21 167.067C222.128 167.418 217.534 165.918 213.578 161.899C211.026 159.347 209.399 156.38 208.251 152.297C207.644 150.095 207.549 148.947 207.549 143.396C207.517 136.123 207.836 134.368 209.909 129.998C212.111 125.404 215.971 122.054 220.915 120.491C223.914 119.534 231.953 119.47 234.92 120.395C239.227 121.703 242.512 124.064 244.65 127.477L245.639 129.041L245.575 125.723L245.479 122.373L243.597 121.64C238.908 119.821 233.516 118.928 227.455 118.896C212.334 118.864 201.488 125.149 197.851 136.059C195.012 144.481 197.436 153.955 203.912 160.017C206.4 162.345 208.889 163.909 212.206 165.217C218.746 167.832 227.327 168.662 233.867 167.322Z" fill="#692046"/>
<path d="M115.004 105.275L81.8271 72.0979L115.1 38.8569L148.341 5.58398L181.518 38.7612C199.766 57.0087 214.696 72.066 214.696 72.2575C214.696 72.6722 148.915 138.452 148.501 138.452C148.309 138.452 133.252 123.523 115.004 105.275ZM137.176 94.365C136.57 93.3441 136.538 92.6742 136.538 71.0771V48.8101H140.685C147.831 48.8101 150.191 49.8309 152.169 53.7229C153.286 55.924 153.286 55.924 153.286 60.2626C153.286 64.3779 153.222 64.6969 152.361 66.579C150.893 69.7692 148.437 71.7151 145.183 72.2575L143.811 72.4808L144.481 73.1826C144.832 73.5654 146.427 76.4046 147.99 79.5309C151.308 86.1026 153.222 89.1332 155.264 90.8877C158.103 93.4079 162.41 94.8435 168.12 95.2263L171.469 95.4496L170.098 94.3969C168.311 92.9932 165.089 89.1332 161.261 83.7738C157.943 79.1481 155.008 76.1175 152.871 75.1605C151.691 74.6181 151.531 74.4267 151.531 73.5335C151.531 72.5446 151.595 72.4808 153.062 72.2894C158.135 71.6194 162.537 67.2809 163.654 61.7939C164.611 57.1682 161.74 52.3192 156.731 50.0223C152.903 48.2997 151.244 48.1083 137.718 47.9488L125.34 47.7892L126.01 48.8739C126.648 49.8947 126.648 50.3413 126.648 71.6194C126.648 92.6742 126.616 93.3441 126.01 94.365L125.372 95.3858H131.593H137.814L137.176 94.365Z" fill="#BDBEC0"/>
<path d="M221.713 168.725C206.783 167.034 197.691 159.346 195.873 146.777C194.597 138.163 198.01 129.295 204.518 124.318C210.197 119.98 217.502 117.906 227.296 117.906C234.218 117.906 239.61 118.768 244.554 120.682L246.436 121.415L246.532 127.54C246.564 130.954 246.5 133.665 246.341 133.665C246.181 133.665 245.798 132.996 245.479 132.166C243.438 126.615 239.641 123.042 233.963 121.352C231.06 120.49 224.807 120.522 221.872 121.447C215.46 123.457 210.962 128.466 209.08 135.739C208.187 139.121 208.251 147.861 209.208 151.339C210.324 155.422 211.983 158.389 214.535 160.941C218.331 164.769 223.276 166.492 229.21 166.077C236.483 165.567 240.79 163.206 243.884 158.07C245.097 156.028 246.723 151.402 247.074 148.882C247.234 147.957 247.457 147.415 247.681 147.479C247.904 147.542 248.159 149.744 248.414 153.604C248.829 160.526 248.957 160.048 245.766 162.983C242.8 165.694 239.482 167.289 234.697 168.31C231.858 168.884 225.158 169.108 221.713 168.725Z" fill="white"/>
<path d="M43.0664 167.8C43.0664 167.64 43.5449 167.481 44.1191 167.481C45.6823 167.449 47.7559 166.364 48.4896 165.184C49.0957 164.163 49.1276 163.621 49.1276 143.395C49.1276 123.17 49.0957 122.628 48.4896 121.607C47.7559 120.426 45.6823 119.342 44.1191 119.31C43.5449 119.31 43.0664 119.182 43.0664 118.991C43.0664 118.799 47.2774 118.672 55.0293 118.672C62.7813 118.672 66.9923 118.799 66.9923 118.991C66.9923 119.182 66.5138 119.31 65.9715 119.31C64.3764 119.342 62.3028 120.426 61.5691 121.607C60.963 122.628 60.9311 123.17 60.9311 143.395C60.9311 163.621 60.963 164.163 61.5691 165.184C62.3028 166.364 64.3764 167.449 65.9715 167.481C66.5138 167.481 66.9923 167.64 66.9923 167.8C66.9923 167.991 62.7813 168.119 55.0293 168.119C47.2774 168.119 43.0664 167.991 43.0664 167.8Z" fill="white"/>
<path d="M89.0362 167.768C84.8891 167.225 81.2205 165.79 78.7641 163.748C77.7432 162.887 63.4834 145.246 63.4834 144.863C63.4834 144.767 67.7263 139.567 72.8942 133.346C82.8474 121.383 83.1664 120.905 81.6033 119.82C81.2205 119.533 80.4867 119.31 80.0082 119.31C79.4978 119.31 79.115 119.182 79.115 118.991C79.115 118.799 82.3051 118.672 88.0473 118.672C96.533 118.672 99.2446 118.959 95.0656 119.438C91.2055 119.884 90.089 120.745 81.1567 130.348L73.0857 138.993L82.656 150.924C87.9197 157.496 92.8963 163.525 93.7257 164.354C95.3208 166.013 97.2029 167.034 99.1808 167.353C99.9145 167.481 100.489 167.672 100.489 167.832C100.489 168.183 91.8116 168.119 89.0362 167.768Z" fill="white"/>
<path d="M119.63 96.0225C119.63 95.8629 120.108 95.7034 120.683 95.7034C122.246 95.6715 124.319 94.5869 125.053 93.4066C125.659 92.3857 125.691 91.8434 125.691 71.618C125.691 51.3927 125.659 50.8504 125.053 49.8295C124.319 48.6492 122.246 47.5646 120.683 47.5327C120.108 47.5327 119.63 47.3731 119.63 47.1817C119.63 46.9584 124.192 46.8946 135.357 46.9903C152.52 47.1498 153.668 47.2455 157.688 49.0639C164.292 52.0626 166.716 59.3361 163.43 66.2905C161.803 69.7359 157.688 72.7665 153.987 73.245L152.456 73.4683L154.147 74.3934C156.571 75.7333 158.805 78.0302 162.314 82.943C169.077 92.4176 171.916 95.0335 176.063 95.5758C176.956 95.7034 177.69 95.9267 177.69 96.1182C177.69 96.3096 175.393 96.3734 170.927 96.2458C165.536 96.1182 163.622 95.9586 161.676 95.4163C154.689 93.598 152.52 91.3649 147.033 80.4547C144.002 74.4892 143.205 73.3726 141.259 72.5113C140.589 72.2242 140.047 71.8733 140.047 71.7457C140.047 71.6499 141.227 71.4585 142.694 71.3628C144.13 71.2671 145.853 70.9481 146.523 70.6929C148.437 69.8635 150.383 67.8537 151.403 65.6206C152.233 63.8342 152.329 63.3237 152.329 60.2612C152.329 57.0073 152.265 56.784 151.212 54.6785C149.298 50.9461 146.778 49.7657 140.685 49.7657H137.495V71.0757C137.495 91.8434 137.526 92.3857 138.133 93.4066C138.866 94.5869 140.94 95.6715 142.535 95.7034C143.077 95.7034 143.556 95.8629 143.556 96.0225C143.556 96.2139 139.345 96.3415 131.593 96.3415C123.841 96.3415 119.63 96.2139 119.63 96.0225Z" fill="white"/>
</svg>
